<svg width="94" height="24" viewBox="0 0 94 24" fill="none" xmlns="http://www.w3.org/2000/svg">
<path d="M72.6034 0.000732422C71.6863 0.000732422 71.0951 0.718169 71.0739 1.82863V10.1887C71.0739 11.4223 70.8373 12.1855 70.3364 12.5257L69.7423 12.9503C69.2388 13.2955 69.0068 13.7368 69.0068 14.307C69.0068 15.269 69.7423 15.9548 70.7958 15.9548C72.1677 15.9548 73.5608 14.6805 73.9554 13.0738C74.1142 12.5074 74.1142 12.3053 74.1142 10.9319V1.82863C74.1142 0.741044 73.5155 0.000732422 72.6034 0.000732422Z" fill="#55585F"/>
<path d="M78.509 0.000732422C77.6181 0.000732422 77.0207 0.718169 76.9953 1.82863V10.2586C76.9953 11.3499 77.6181 12.0852 78.5336 12.0852C79.4257 12.0852 80.0219 11.3707 80.0448 10.2586V1.82863C80.0448 0.741044 79.4257 0.000732422 78.509 0.000732422Z" fill="#55585F"/>
<path d="M49.3204 0.000732422C46.1146 0.000732422 43.5977 2.71201 43.5977 6.19064V10.2137C43.5977 11.3266 44.233 12.0861 45.1725 12.0861C46.0921 12.0861 46.6946 11.3528 46.7224 10.2137V6.09664C46.7399 4.49499 47.8462 3.27972 49.3208 3.27972C50.7239 3.27972 51.8497 4.48875 51.8738 6.02178V10.2137C51.8738 11.3266 52.4954 12.0861 53.4345 12.0861C54.3525 12.0861 54.9553 11.3528 54.9844 10.2137V6.11328C54.9777 2.71076 52.4584 0.000732422 49.3204 0.000732422Z" fill="#55585F"/>
<path d="M88.2893 0.000732422C85.0798 0.000732422 82.5641 2.71201 82.5641 6.19064V10.2137C82.5641 11.3266 83.2015 12.0861 84.1398 12.0861C85.0607 12.0861 85.6635 11.3528 85.6859 10.2137V6.09664C85.7046 4.49499 86.8109 3.27972 88.2893 3.27972C89.6899 3.27972 90.8149 4.48875 90.8423 6.02178V10.2137C90.8423 11.3266 91.4651 12.0861 92.4022 12.0861C93.3177 12.0861 93.9205 11.3528 93.9454 10.2137V6.11328C93.9425 2.71076 91.4223 0.000732422 88.2893 0.000732422Z" fill="#55585F"/>
<path d="M15.088 0.000831352C14.1767 0.000831352 13.5768 0.71702 13.5535 1.82333V6.68233C13.5535 7.8714 12.7549 8.80511 11.7039 8.80511C10.9921 8.80511 10.3078 8.34013 10.0301 7.67094C9.86798 7.25087 9.82017 6.95641 9.82017 5.96989V1.82291C9.82017 0.739895 9.21029 0.000415676 8.32019 0.000415676C8.31603 0.000415676 8.31603 0.000415676 8.30855 0.000415676C8.30231 0.000415676 8.30231 0.000415676 8.28443 0.000415676C7.39558 0.000415676 6.80357 0.716604 6.78195 1.82291V6.68192C6.78195 7.87099 5.97708 8.80469 4.92651 8.80469C4.21435 8.80469 3.52921 8.33971 3.25025 7.67052C3.0931 7.25046 3.04737 6.956 3.04737 5.96947V1.82249C3.04737 0.739476 2.42916 0 1.51204 0C0.619868 0 0.027023 0.716186 0 1.82249V6.26352C0 7.57154 0.231151 8.70488 0.66643 9.47264C1.58438 11.0755 3.25025 12.0853 4.94813 12.0853C6.20033 12.0853 7.42053 11.5426 8.32185 10.601C9.24936 11.543 10.4824 12.0853 11.723 12.0853C13.1902 12.0853 14.6087 11.3509 15.522 10.1086C16.2837 9.07254 16.6034 7.96623 16.6034 6.36292V1.82333C16.603 0.740311 15.9835 0.000831352 15.088 0.000831352Z" fill="#55585F"/>
<path d="M31.0278 7.75492C31.7042 10.319 33.8727 12.1544 36.4611 12.1544C39.6631 12.1544 42.1884 9.45306 42.1884 5.97153C42.1884 2.71708 39.5979 0.0012207 36.4848 0.0012207C33.879 0.0012207 31.6668 1.91896 31.0091 4.4751H29.1117C28.4565 1.94266 26.2231 0.0344938 23.6135 0.0344938C20.5017 0.0344938 17.9358 2.77073 17.9358 6.08008C17.9358 9.48134 20.4535 12.1943 23.5911 12.1943C26.2319 12.1943 28.4041 10.3514 29.0901 7.75534H31.0278V7.75492ZM36.4848 3.33054C37.9017 3.33054 39.0703 4.56702 39.0703 6.02185C39.0703 7.64471 37.9503 8.88161 36.4611 8.88161C35.043 8.88161 33.8968 7.64471 33.8968 6.09131C33.8964 4.5666 35.0667 3.33054 36.4848 3.33054ZM23.5911 8.91655C22.1718 8.91655 21.0268 7.67798 21.0268 6.12915C21.0268 4.59779 22.1938 3.3609 23.6135 3.3609C25.0325 3.3609 26.199 4.59821 26.199 6.05429C26.199 7.6784 25.0761 8.91655 23.5911 8.91655Z" fill="#55585F"/>
<path d="M63.9872 12.8421V11.156C66.3661 10.479 68.081 8.31084 68.081 5.726C68.081 2.52021 65.5629 0.000244141 62.3359 0.000244141C59.3093 0.000244141 56.7937 2.58842 56.7937 5.7052C56.7937 8.3046 58.5714 10.5214 60.944 11.1802V12.8184C58.5926 13.4764 56.8265 15.7123 56.8265 18.3204C56.8265 21.4384 59.3684 24 62.4336 24C65.5945 24 68.1097 21.4821 68.1097 18.3449C68.1097 15.6994 66.396 13.5296 63.9872 12.8421ZM59.8872 5.70562C59.8872 4.28323 61.0309 3.11412 62.3816 3.11412C63.8924 3.11412 65.0374 4.23581 65.0374 5.72641C65.0374 7.14465 63.8924 8.29005 62.4482 8.29005C61.0309 8.29005 59.8872 7.12177 59.8872 5.70562ZM62.4802 20.9082C61.0584 20.9082 59.9134 19.7445 59.9134 18.3212C59.9134 16.9001 61.0584 15.736 62.4103 15.736C63.9224 15.736 65.0686 16.8556 65.0686 18.3458C65.0686 19.7669 63.922 20.9082 62.4802 20.9082Z" fill="#55585F"/>
</svg>
