<svg width="35" height="35" viewBox="0 0 35 35" fill="none" xmlns="http://www.w3.org/2000/svg">
<rect width="35" height="35" rx="17.5" fill="#ADB0B8"/>
<path d="M17.5024 11.8499C14.375 11.8499 11.8524 14.3725 11.8524 17.5C11.8524 20.6274 14.375 23.15 17.5024 23.15C20.6299 23.15 23.1525 20.6274 23.1525 17.5C23.1525 14.3725 20.6299 11.8499 17.5024 11.8499ZM17.5024 21.1732C15.4814 21.1732 13.8292 19.5259 13.8292 17.5C13.8292 15.474 15.4765 13.8267 17.5024 13.8267C19.5284 13.8267 21.1757 15.474 21.1757 17.5C21.1757 19.5259 19.5235 21.1732 17.5024 21.1732ZM24.7014 11.6188C24.7014 12.3515 24.1113 12.9367 23.3836 12.9367C22.6509 12.9367 22.0657 12.3466 22.0657 11.6188C22.0657 10.8911 22.6558 10.301 23.3836 10.301C24.1113 10.301 24.7014 10.8911 24.7014 11.6188ZM28.4435 12.9563C28.3599 11.191 27.9567 9.62731 26.6634 8.33897C25.3751 7.05063 23.8114 6.64741 22.0461 6.55889C20.2266 6.45563 14.7733 6.45563 12.9539 6.55889C11.1935 6.64249 9.62979 7.04571 8.33653 8.33405C7.04327 9.62239 6.64496 11.1861 6.55645 12.9514C6.45319 14.7708 6.45319 20.2242 6.55645 22.0436C6.64005 23.8089 7.04327 25.3726 8.33653 26.661C9.62979 27.9493 11.1886 28.3525 12.9539 28.441C14.7733 28.5443 20.2266 28.5443 22.0461 28.441C23.8114 28.3574 25.3751 27.9542 26.6634 26.661C27.9518 25.3726 28.355 23.8089 28.4435 22.0436C28.5468 20.2242 28.5468 14.7758 28.4435 12.9563ZM26.093 23.9958C25.7095 24.9596 24.967 25.7021 23.9982 26.0905C22.5476 26.6659 19.1055 26.5331 17.5024 26.5331C15.8994 26.5331 12.4523 26.661 11.0066 26.0905C10.0428 25.707 9.30033 24.9645 8.91186 23.9958C8.33653 22.5451 8.4693 19.103 8.4693 17.5C8.4693 15.8969 8.34144 12.4499 8.91186 11.0042C9.29541 10.0404 10.0379 9.29785 11.0066 8.90938C12.4573 8.33405 15.8994 8.46682 17.5024 8.46682C19.1055 8.46682 22.5525 8.33897 23.9982 8.90938C24.962 9.29293 25.7046 10.0354 26.093 11.0042C26.6684 12.4548 26.5356 15.8969 26.5356 17.5C26.5356 19.103 26.6684 22.5501 26.093 23.9958Z" fill="white"/>
</svg>
