<svg width="35" height="35" viewBox="0 0 35 35" fill="none" xmlns="http://www.w3.org/2000/svg">
<rect width="35" height="35" rx="17.5" fill="#ADB0B8"/>
<path d="M28.7796 11.8132C28.5088 10.7937 27.711 9.99078 26.6981 9.71829C24.8621 9.22314 17.5 9.22314 17.5 9.22314C17.5 9.22314 10.1379 9.22314 8.30187 9.71829C7.28894 9.99082 6.49118 10.7937 6.22041 11.8132C5.72845 13.6612 5.72845 17.5167 5.72845 17.5167C5.72845 17.5167 5.72845 21.3723 6.22041 23.2202C6.49118 24.2397 7.28894 25.0092 8.30187 25.2817C10.1379 25.7768 17.5 25.7768 17.5 25.7768C17.5 25.7768 24.8621 25.7768 26.6981 25.2817C27.711 25.0092 28.5088 24.2397 28.7796 23.2202C29.2715 21.3723 29.2715 17.5167 29.2715 17.5167C29.2715 17.5167 29.2715 13.6612 28.7796 11.8132ZM15.0922 21.0173V14.0162L21.2454 17.5168L15.0922 21.0173Z" fill="white"/>
</svg>
