<svg width="35" height="35" viewBox="0 0 35 35" fill="none" xmlns="http://www.w3.org/2000/svg">
<rect width="35" height="35" rx="17.5" fill="#ADB0B8"/>
<g clip-path="url(#clip0_1155_1683)">
<path d="M7.45198 13.9775C7.45198 13.9775 6.46738 13.9775 5.57472 14.8468V11.3446H3.36584V20.5463H5.5974V19.8253C5.5974 19.8253 6.12391 20.776 7.45198 20.776C7.45198 20.776 10.5646 20.6613 10.5646 17.3424C10.5646 17.3424 10.4503 13.9775 7.45198 13.9775ZM6.9656 18.8337C6.1824 18.8337 5.54614 18.1981 5.54614 17.414C5.54614 16.6304 6.1824 15.995 6.9656 15.995C7.74941 15.995 8.38483 16.6304 8.38483 17.414C8.38483 18.1981 7.74941 18.8337 6.9656 18.8337Z" fill="white"/>
<path d="M11.2741 11.1388V13.2678C11.2741 13.2678 12.2818 13.2219 12.2818 15.0992V20.5462H14.4104V14.5955C14.4104 14.5955 14.5018 11.1388 11.2741 11.1388Z" fill="white"/>
<path d="M19.6157 14.0061C19.6157 14.0061 15.9668 14.0066 15.9668 17.4141C15.9668 17.4141 15.8486 20.7761 19.6157 20.7761C19.6157 20.7761 23.3488 20.7705 23.3488 17.4141C23.3488 17.4141 23.4705 14.0061 19.6157 14.0061ZM19.6162 18.8337C18.8327 18.8337 18.1968 18.1981 18.1968 17.4141C18.1968 16.6305 18.8327 15.995 19.6162 15.995C20.3998 15.995 21.0354 16.6305 21.0354 17.4141C21.0354 18.1981 20.3998 18.8337 19.6162 18.8337Z" fill="white"/>
<path d="M29.4427 14.2291V14.8468C29.4427 14.8468 28.8077 14.006 27.5894 14.006C27.5894 14.006 24.4646 13.8741 24.4646 17.3907C24.4646 17.3907 24.4301 20.6667 27.5033 20.6667C27.5033 20.6667 28.7564 20.718 29.4426 19.8252V20.3409C29.4426 20.3409 29.5977 21.9545 28.0349 21.9545H27.5032V23.911H28.3613C28.3613 23.911 31.5883 23.9456 31.5883 20.4607V14.2291H29.4427ZM28.1226 18.8337C27.3387 18.8337 26.7037 18.1981 26.7037 17.414C26.7037 16.6304 27.3387 15.995 28.1226 15.995C28.9061 15.995 29.5417 16.6304 29.5417 17.414C29.5417 18.1981 28.9061 18.8337 28.1226 18.8337Z" fill="white"/>
</g>
<defs>
<clipPath id="clip0_1155_1683">
<rect width="28.6554" height="12.963" fill="white" transform="translate(3.17236 11.0186)"/>
</clipPath>
</defs>
</svg>
