<svg width="109" height="52" viewBox="0 0 109 52" fill="none" xmlns="http://www.w3.org/2000/svg">
<g clip-path="url(#clip0_1114_2328)">
<path d="M4.78738 15.2933C5.31803 14.7803 5.00701 14.1037 4.83975 13.6099C3.85433 12.3926 3.01373 12.6908 2.24954 13.2695C1.94708 13.7371 1.47254 14.3741 1.90486 15.0122C2.8144 15.763 3.76241 15.731 4.78738 15.2933Z" fill="#D13239"/>
<path d="M103.573 22.5781L103.413 22.5647C103.377 22.5578 103.223 22.4969 103.223 22.4969L103.174 22.4579C102.996 22.3692 103.135 22.2222 103.135 22.2222L103.332 22.0271C103.385 21.947 103.499 21.8941 103.499 21.8941C103.551 21.8626 103.599 21.8385 103.665 21.8054C103.767 21.7525 103.873 21.7049 103.997 21.652C104.124 21.5922 104.036 21.637 104.175 21.5708C104.196 21.5606 104.214 21.5526 104.234 21.5441C104.222 21.5221 104.214 21.4986 104.204 21.4794C103.949 20.9851 103.691 20.4373 103.413 19.9537C103.365 19.8698 103.319 19.7875 103.271 19.7063L103.201 19.7464L102.683 20.0739L102.388 20.2845L102.299 20.3176L102.13 20.3187C102.032 20.3278 101.92 20.2759 101.92 20.2759C101.817 20.2653 101.775 20.1247 101.775 20.1247L101.761 20.0574L101.778 19.9874L101.837 19.904L101.934 19.7587L102.158 19.5433C102.388 19.3969 102.605 19.174 102.827 19.0142C102.838 19.0041 102.851 18.9971 102.861 18.9881C102.471 18.3195 102.037 17.6612 101.479 17.1385C101.443 17.1802 101.409 17.224 101.377 17.2694C101.155 17.596 100.82 17.8621 100.606 18.195L100.364 18.3281C100.236 18.4013 100.167 18.3356 100.167 18.3356C100.085 18.3206 100.032 18.2228 100.032 18.2228L99.9943 18.1501C99.9131 18.0924 99.9451 17.9631 99.9451 17.9631L99.9649 17.8086L100.077 17.5874C100.208 17.4485 100.206 17.3977 100.307 17.2427L100.452 17.0584C100.569 16.9109 100.686 16.7655 100.796 16.6234C100.388 16.4005 99.757 16.1472 99.4113 16.1071C99.1895 16.0836 98.9234 16.1114 98.7144 16.2439C98.6305 16.4545 98.5648 16.6838 98.5097 16.9007C98.4408 17.1946 98.4082 17.3517 98.3842 17.5724C98.3783 17.5997 98.3532 17.7274 98.3254 17.8081C98.2853 18.04 98.2655 18.2463 98.2099 18.4841C98.1715 18.6669 98.1228 18.8625 98.0822 19.0228C98.0432 19.1943 98.0138 19.3573 97.97 19.5241C97.8797 19.9168 97.8038 20.2973 97.7616 20.6992C97.7413 20.8632 97.737 21.093 97.7204 21.2533C97.7071 21.4222 97.6611 21.6269 97.6649 21.8235C97.6761 22.1864 97.5831 22.4953 97.6077 22.8442C97.6248 23.167 97.7028 23.571 97.97 23.7992C98.0977 23.9061 98.273 24.0199 98.4248 24.0985C98.6332 24.2096 98.9004 24.247 99.1328 24.325C99.3236 24.394 99.5449 24.4325 99.7784 24.4228C100.075 24.4148 100.413 24.2411 100.693 24.1578C101.407 23.9515 102.13 24.2684 102.799 24.3811C102.928 24.4015 103.056 24.4292 103.189 24.4613C103.384 24.394 103.585 24.3154 103.687 24.2128C103.949 23.9643 104.387 23.4925 104.44 23.1649C104.493 22.8442 104.489 22.5001 104.427 22.1736C104.217 22.2842 104.03 22.3986 103.796 22.5321C103.741 22.5663 103.573 22.5781 103.573 22.5781Z" fill="#F5C400"/>
<path d="M109.402 15.3041C109.394 15.2063 109.384 15.0909 109.312 15.0096C109.26 14.9567 109.039 14.8221 108.983 14.8055C108.566 14.6778 108.302 14.9434 108.302 14.9434L108.151 15.0534C108.127 15.0705 108.111 15.0893 108.084 15.1074C108.035 15.1448 107.988 15.1641 107.928 15.2047C107.853 15.2528 107.788 15.3335 107.714 15.3885C107.526 15.5413 107.266 15.7257 107.092 15.8924C106.838 16.1361 106.696 16.2729 106.423 16.4204C106.31 16.4835 106.233 16.5727 106.15 16.639C106.069 16.7053 105.996 16.7432 105.905 16.7924C105.632 16.9334 105.373 17.0777 105.123 17.2626C104.95 17.3962 104.639 17.5988 104.44 17.7837C104.342 17.874 104.262 17.9621 104.171 18.0183C104.086 18.084 103.974 18.1636 103.891 18.2293C103.79 18.3084 103.698 18.349 103.61 18.434C103.526 18.5094 103.422 18.5521 103.337 18.6333C103.197 18.7653 103.026 18.8744 102.863 18.9866C102.852 18.9957 102.84 19.0026 102.829 19.0128C102.606 19.1725 102.39 19.3954 102.16 19.5418L101.936 19.7572L101.838 19.9025L101.78 19.9859L101.763 20.0559L101.776 20.1232C101.776 20.1232 101.818 20.2643 101.921 20.2745C101.921 20.2745 102.034 20.3263 102.132 20.3172L102.301 20.3161L102.39 20.283L102.685 20.0725L103.202 19.7449L103.273 19.7048L103.95 19.2853C104.366 19.0544 104.616 18.799 104.987 18.5991L105.066 18.551C105.133 18.5136 105.267 18.4586 105.336 18.4244C105.725 18.2288 105.897 18.1321 106.217 17.9028C106.489 17.7137 106.807 17.4999 107.103 17.3171C107.266 17.2119 107.423 17.1499 107.566 17.0291C107.583 17.005 107.61 16.9874 107.629 16.9719L108.667 16.3403L109.159 15.9336C109.209 15.8999 109.256 15.8641 109.302 15.8331C109.461 15.6878 109.435 15.52 109.402 15.3041Z" fill="#717271"/>
<path d="M104.444 12.6128C104.384 12.5573 104.298 12.4744 104.219 12.4573C104.033 12.4108 103.887 12.5359 103.748 12.6203C103.63 12.686 103.473 12.7619 103.397 12.8667C103.343 12.9409 103.308 13.0334 103.252 13.1114C103.203 13.1788 103.157 13.245 103.109 13.3118C103.06 13.3861 103.017 13.4582 102.966 13.532C102.91 13.6116 102.887 13.6763 102.813 13.7527C102.728 13.8548 102.633 13.9648 102.579 14.0829C102.537 14.1743 102.463 14.2582 102.394 14.3379C102.174 14.5874 102.053 14.8434 101.853 15.1133C101.77 15.2233 101.655 15.3452 101.6 15.4638C101.569 15.536 101.486 15.6594 101.446 15.7273C101.383 15.8331 101.32 15.9229 101.222 16.0191C101.133 16.1136 101.072 16.2162 101.001 16.329C100.926 16.446 100.885 16.5086 100.816 16.5957C100.811 16.6064 100.802 16.6133 100.795 16.6218C100.686 16.7645 100.568 16.9094 100.451 17.0568L100.306 17.2412C100.206 17.3956 100.206 17.447 100.076 17.5859L99.9638 17.8071L99.9441 17.9616C99.9441 17.9616 99.9115 18.0904 99.9932 18.1486L100.031 18.2213C100.031 18.2213 100.084 18.3191 100.166 18.334C100.166 18.334 100.235 18.3998 100.362 18.3266L100.605 18.1935C100.819 17.8606 101.154 17.5944 101.376 17.2679C101.408 17.2225 101.442 17.1787 101.478 17.137C101.657 16.9008 101.871 16.6812 102.02 16.4268C102.098 16.2905 102.203 16.1505 102.3 16.0212C102.522 15.7315 102.745 15.4563 102.99 15.1902C103.226 14.9358 103.452 14.667 103.626 14.3886C103.772 14.1759 104.004 14.0274 104.153 13.8259C104.256 13.6902 104.357 13.5582 104.399 13.4032C104.455 13.2156 104.537 13.0334 104.512 12.8287C104.512 12.7539 104.502 12.6689 104.444 12.6128Z" fill="#717271"/>
<path d="M109.442 19.2095C109.397 19.0898 109.293 19.0272 109.147 19.0337C109.03 19.0459 108.907 19.0887 108.801 19.1234C108.69 19.1576 108.576 19.2063 108.467 19.2645C108.371 19.3057 108.292 19.373 108.206 19.4157C107.995 19.5189 107.789 19.6156 107.615 19.7423C107.296 19.9801 106.952 20.1185 106.596 20.2959C106.294 20.4407 106.001 20.6256 105.723 20.8094C105.635 20.8672 105.537 20.935 105.423 20.9853C104.889 21.2166 104.833 21.2845 104.536 21.4069C104.409 21.4593 104.336 21.4913 104.234 21.5432C104.214 21.5517 104.196 21.5597 104.176 21.5699C104.036 21.6361 104.124 21.5913 103.997 21.6511C103.873 21.704 103.767 21.7516 103.666 21.8045C103.6 21.8376 103.552 21.8617 103.499 21.8932C103.499 21.8932 103.386 21.9461 103.332 22.0263L103.135 22.2213C103.135 22.2213 102.997 22.3683 103.175 22.457L103.224 22.496C103.224 22.496 103.378 22.5569 103.414 22.5639L103.574 22.5772C103.574 22.5772 103.741 22.566 103.797 22.5297C104.031 22.3961 104.217 22.2817 104.427 22.1711C104.58 22.0947 104.744 22.0182 104.946 21.9418C105.235 21.8328 105.543 21.7329 105.815 21.6035C106.296 21.3754 106.777 21.0985 107.26 20.9275C107.543 20.8271 107.869 20.7068 108.145 20.5412C108.384 20.4022 108.664 20.2975 108.92 20.2024C109.06 20.1484 109.115 20.1243 109.217 20.0282C109.307 19.9475 109.393 19.8625 109.458 19.7551C109.529 19.6252 109.5 19.3586 109.442 19.2095Z" fill="#717271"/>
<path d="M106.02 25.4863C105.609 25.2881 105.078 25.1577 104.67 24.9771C104.212 24.7793 103.697 24.5891 103.189 24.4598C103.057 24.4272 102.929 24.3999 102.799 24.3796C102.13 24.2669 101.407 23.95 100.694 24.1562C100.414 24.2396 100.076 24.4133 99.7789 24.4213C99.5454 24.4314 99.3241 24.3924 99.1334 24.3235C98.9004 24.2455 98.6332 24.2081 98.4253 24.0969C98.2741 24.0189 98.0988 23.9051 97.9705 23.7977C97.7033 23.5695 97.6253 23.1649 97.6082 22.8427C97.5836 22.4937 97.6772 22.1849 97.6654 21.822C97.6611 21.6254 97.7071 21.4207 97.721 21.2518C97.7375 21.0915 97.7418 20.8617 97.7621 20.6976C97.8043 20.2958 97.8802 19.9153 97.9705 19.5225C98.0144 19.3558 98.0438 19.1933 98.0828 19.0213C98.1234 18.8609 98.172 18.6654 98.2105 18.4826C98.2661 18.2453 98.2858 18.0385 98.3259 17.8066C98.3542 17.7259 98.3794 17.5976 98.3847 17.5709C98.4087 17.3502 98.4413 17.1931 98.5103 16.8992C98.5653 16.6822 98.631 16.4524 98.7149 16.2424C98.755 16.1457 98.793 16.0484 98.8373 15.9592C99.0249 15.5766 99.1499 15.1132 99.3589 14.714C99.3589 14.714 99.4839 14.5115 99.508 14.4495C99.539 14.3918 99.5817 14.3133 99.5817 14.3133C99.5817 14.3133 99.6598 14.2 99.7437 14.0669C99.8628 13.8799 99.8441 13.9483 99.9109 13.8184C99.944 13.7869 99.9686 13.7473 99.9852 13.7062C100.022 13.6586 100.054 13.6175 100.063 13.5517C100.087 13.4192 100.072 13.2642 99.9996 13.1526C99.9147 13.0136 99.7869 12.8244 99.594 12.8127C99.4236 12.8047 99.2242 12.9121 99.0944 12.9992C99.0131 13.0505 98.9549 13.1162 98.9047 13.1884C98.7005 13.3946 98.5477 13.719 98.4729 13.9541C98.3692 14.2962 98.2335 14.6334 98.1533 14.9882C98.0641 15.3521 97.9032 15.575 97.7942 15.9234C97.7477 16.0906 97.6547 16.3162 97.6232 16.4866C97.5981 16.6325 97.5649 16.9286 97.5671 17.0638C97.5259 17.2829 97.4313 17.7836 97.4046 17.9525C97.3314 18.3901 97.2886 18.7995 97.1551 19.2302C96.9424 19.9105 96.6891 20.6683 96.7142 21.4063C96.7388 22.1004 96.6816 22.9132 96.8889 23.5679C96.9343 23.7079 96.9915 23.8313 97.076 23.9633C97.1059 24.0184 97.1417 24.0729 97.1812 24.1268C97.2507 24.2262 97.2887 24.2765 97.3742 24.355C97.4367 24.417 97.4906 24.4603 97.5441 24.5228C97.6456 24.6404 97.8198 24.7184 97.9556 24.8061C98.1138 24.9044 98.1848 24.9872 98.3665 25.0513C98.5135 25.1117 98.6481 25.1625 98.7956 25.186C98.9618 25.2106 99.1713 25.2063 99.3354 25.186C99.562 25.1539 99.8104 25.0925 100.045 25.108C100.221 25.116 100.385 25.1278 100.576 25.1139C100.966 25.0823 101.342 24.8948 101.731 24.9316C102.166 24.9707 102.531 25.1796 102.97 25.3335C103.281 25.4447 103.515 25.4997 103.705 25.6167C103.894 25.7348 104.081 25.862 104.253 25.9769C104.583 26.2008 104.924 26.4103 105.316 26.5872C105.537 26.685 105.679 26.7961 105.833 26.872C106.098 27.0024 106.452 27.0874 106.744 27.1884C106.915 27.2445 107.128 27.3455 107.273 27.2445C107.391 27.1633 107.443 26.9885 107.439 26.872C107.587 26.0635 106.646 25.7872 106.02 25.4863Z" fill="#717271"/>
<path d="M87.6888 44.3035L87.4804 44.2992C87.1528 44.3104 86.8461 44.3799 86.619 44.4392C86.4437 44.4873 86.2609 44.4996 86.0835 44.5119C85.9568 44.5215 85.8238 44.5317 85.6939 44.552L85.4209 44.6097C85.2776 44.6391 85.1275 44.6728 84.9618 44.6866L84.4883 44.7187C83.9486 44.747 83.3923 44.7796 82.8616 44.9357C82.5442 45.0228 82.2268 45.158 81.9222 45.2846C81.9222 45.2846 81.8607 45.3092 81.8207 45.3263C81.8196 45.3349 81.8212 45.3691 81.8212 45.3781C81.8602 45.3915 81.8992 45.4049 81.9393 45.4198C82.2214 45.5144 82.5458 45.6534 82.8456 45.6999C83.4468 45.7918 83.9518 46.0237 84.5135 46.1963C84.856 46.2973 84.7919 46.339 85.135 46.4165C85.5315 46.5105 85.4449 46.5212 85.8366 46.6099C86.0856 46.6644 86.0605 46.759 86.3122 46.797C86.4597 46.8194 86.5997 46.844 86.7435 46.8787C86.8167 46.8974 86.8968 46.9375 86.946 46.9498C87.1603 47.0032 87.218 46.8098 87.218 46.8098C87.2105 46.774 87.2677 46.7232 87.2859 46.6879C87.3276 46.6099 87.3885 46.4496 87.4109 46.3251C87.443 46.2209 87.5408 46.0654 87.5643 45.9553C87.6984 45.2788 88.01 44.9106 88.1382 44.5183C88.1484 44.5039 88.1853 44.2955 88.2072 44.2495C88.1901 44.2554 88.0618 44.2896 88.0618 44.2896C87.9421 44.3195 87.8128 44.311 87.6888 44.3035Z" fill="#D13239"/>
<path d="M86.9973 3.50864C87.3869 3.43542 87.7492 3.51184 88.1473 3.61231L88.9885 3.93081C89.3444 4.0302 89.5784 4.0986 89.8291 4.31236L90.31 4.70193C90.6221 4.95203 90.9465 5.21495 91.2345 5.52169C91.3585 5.65583 91.4376 5.8108 91.5129 5.97326L91.6321 6.21053C91.9175 6.71232 91.9859 7.51284 91.9864 7.51872C92.0452 7.88905 91.9912 8.0467 91.8811 8.35772L91.7379 8.78149C91.638 9.08289 91.5445 9.36825 91.3804 9.64934C91.1597 10.0229 90.8038 10.3788 90.5569 10.6091C90.3944 10.7657 90.1786 10.8688 89.9616 10.9688L89.5223 11.2028L89.3481 11.3257L88.9804 11.5529C88.9676 11.5571 88.9532 11.5614 88.9339 11.5673L89.408 11.5961L89.6543 11.6351C89.8467 11.6683 90.054 11.7062 90.2705 11.6806C90.4901 11.6565 90.6862 11.5726 90.8786 11.4951L91.3964 11.3289L92.0318 11.198C92.5326 11.0489 92.8494 10.8293 93.0675 10.4862L93.2144 10.2655C93.471 9.88181 93.7098 9.51842 93.8028 9.06312L93.9909 8.16908L94.0107 7.51819V6.92447C94.0203 6.60918 94.031 6.3142 93.9535 5.98982L93.9161 5.82897C93.8066 5.36351 93.6826 4.8334 93.4154 4.45451C93.0659 3.97302 92.6982 3.55246 92.3113 3.188C91.9645 3.02822 91.6081 2.89355 91.2586 2.7872C88.1334 2.36931 86.2609 3.14258 85.2921 4.51597C85.7794 4.00348 86.4004 3.62193 86.9973 3.50864Z" fill="#F38B00"/>
<path d="M95.0426 6.73111L95.0854 6.99564L95.127 7.21688C95.127 7.21955 95.1009 7.82395 95.0982 7.84479C95.056 8.10878 94.9149 8.38292 94.7786 8.64478L94.6103 8.98999C94.5045 9.231 94.3265 9.43781 94.1555 9.63287L93.8782 9.96686L93.5281 10.3035L93.348 10.4532L93.1108 10.6974L92.7581 11.0319L92.5502 11.1554L92.1938 11.3932C91.9319 11.6294 91.7091 11.7079 91.3703 11.8276L91.2842 11.8602C90.55 12.1221 89.8868 12.2717 89.1814 12.3283C88.306 12.4048 87.3222 12.3246 86.0969 12.0793C85.9702 12.0558 85.8441 12.0115 85.7239 11.9634C86.3518 12.9873 87.2645 13.7611 88.6967 14.0774C92.8938 14.3238 95.7272 10.8796 95.8324 7.61821C95.7277 6.63118 95.359 5.80448 94.8401 5.11938C94.9373 5.37963 95.0105 5.64149 95.0244 5.88731L95.0426 6.73111Z" fill="#F38B00"/>
<path d="M89.0467 10.5065C89.5742 10.2864 90.1182 10.0566 90.4848 9.57721L90.7423 9.29238C90.9214 9.1032 91.1079 8.90815 91.1923 8.69065C91.2543 8.52713 91.218 8.28398 91.1923 8.09106L91.1709 7.93288C91.125 7.30925 91.001 6.746 90.8033 6.26718C90.6445 5.88028 90.45 5.64194 90.1925 5.34322C90.1903 5.34054 89.7334 4.82165 89.7334 4.82165C89.7184 4.80455 89.6554 4.74737 89.6554 4.74737C89.3209 4.47269 88.9142 4.12854 88.4776 4.14511L87.5916 4.22153C87.1966 4.27817 86.8552 4.55392 86.5217 4.81951L86.2171 5.05838C85.9082 5.27481 85.6196 5.57461 85.4711 5.81669L85.0847 6.45956C84.794 6.88868 84.7133 7.44017 84.6593 7.92647C84.6027 8.44002 84.7358 8.92953 85.0201 9.26833L85.1863 9.4869C85.3418 9.69478 85.5197 9.92831 85.7271 10.0635L86.2208 10.2693L86.8402 10.6246C87.5504 11.0046 88.2109 10.8592 88.9879 10.5311L89.0467 10.5065Z" fill="#F38B00"/>
<path d="M87.5472 0.610287L86.5185 0.932526L85.858 1.25744C85.5165 1.42684 85.1296 1.6406 84.8362 1.9794L84.5231 2.5015C84.5231 2.5015 84.2393 2.90069 84.2158 2.92741L84.0549 3.23309L83.8348 3.457C83.4126 4.01971 83.1946 4.64068 82.9995 5.40539L82.8579 6.10919L82.844 6.76061C82.7884 7.26134 82.7884 7.64343 82.8472 7.99132L82.8991 8.35471L83.0038 8.96926L83.3244 9.87132C83.4356 10.1572 83.5125 10.3646 83.7445 10.5767L83.9545 10.8423C84.0528 10.9861 84.1463 11.1213 84.3072 11.1945L84.9709 11.5616C85.2114 11.7096 85.462 11.8587 85.7249 11.964C85.8457 12.0121 85.9713 12.0564 86.0979 12.08C87.3238 12.3252 88.3076 12.4049 89.1824 12.329C89.8873 12.2723 90.551 12.1227 91.2853 11.8609L91.3713 11.8283C91.7101 11.7086 91.933 11.6305 92.1948 11.3938L92.5513 11.156L92.7591 11.0326L93.1118 10.698L93.3491 10.4538L93.5292 10.3042L93.8792 9.96751L94.1566 9.63351C94.327 9.43846 94.505 9.23165 94.6113 8.99064L94.7797 8.64542C94.9159 8.38357 95.057 8.10942 95.0992 7.84543C95.1019 7.82459 95.1281 7.22019 95.1281 7.21752L95.0864 6.99628L95.0437 6.73176L95.0255 5.88849C95.0121 5.64266 94.9384 5.38135 94.8411 5.12056C94.7294 4.82718 94.4099 4.16721 94.4099 4.16721C94.2859 3.91123 94.1021 3.67877 93.9305 3.45165L93.5265 2.91566C93.1909 2.45448 92.8398 1.9794 92.4401 1.58876C92.2541 1.41241 91.9688 1.33065 91.7107 1.26385L90.4308 0.852901C89.9103 0.674948 89.2343 0.47936 88.6224 0.51944L87.5472 0.610287ZM86.8397 10.6253L86.2203 10.27L85.7265 10.0642C85.5192 9.92903 85.3412 9.6955 85.1857 9.48762L85.0195 9.26906C84.7352 8.93025 84.6022 8.44075 84.6588 7.92719C84.7128 7.4409 84.7935 6.8894 85.0842 6.46029L85.4706 5.81741C85.6186 5.57533 85.9072 5.27554 86.2166 5.05911L86.5212 4.82023C86.8546 4.55464 87.1961 4.27889 87.591 4.22225L88.477 4.14583C88.9136 4.12926 89.3203 4.47341 89.6548 4.74809C89.6548 4.74809 89.7179 4.80474 89.7329 4.82237C89.7329 4.82237 90.1898 5.34127 90.1919 5.34394C90.449 5.64266 90.644 5.881 90.8027 6.2679C91.0005 6.74672 91.125 7.30997 91.1704 7.93361L91.1918 8.09179C91.2174 8.2847 91.2538 8.52785 91.1918 8.69138C91.1073 8.90887 90.9208 9.10393 90.7418 9.2931L90.4842 9.57793C90.1171 10.0573 89.5736 10.2871 89.0462 10.5072L88.9869 10.5324C88.2104 10.8599 87.5499 11.0053 86.8397 10.6253ZM94.0118 6.92521V7.51892L93.992 8.16981L93.8039 9.06385C93.7109 9.51915 93.4726 9.88254 93.2155 10.2662L93.0685 10.4869C92.8505 10.83 92.5331 11.0497 92.0329 11.1987L91.3975 11.3297L90.8797 11.4959C90.6878 11.5734 90.4912 11.6573 90.2715 11.6813C90.0551 11.707 89.8478 11.669 89.6554 11.6359L89.409 11.5969L88.935 11.568C88.9543 11.5616 88.9687 11.5573 88.9815 11.5536L89.3492 11.3265L89.5234 11.2036L89.9627 10.9695C90.1796 10.8696 90.3961 10.7664 90.558 10.6098C90.8049 10.3795 91.1608 10.0236 91.3815 9.65008C91.5455 9.36899 91.6391 9.08362 91.739 8.78222L91.8822 8.35845C91.9923 8.04743 92.0468 7.88979 91.9875 7.51945C91.9869 7.51304 91.9185 6.71305 91.6332 6.21126L91.514 5.97399C91.4381 5.81153 91.3596 5.65656 91.2356 5.52243C90.9475 5.21568 90.6232 4.95276 90.3111 4.70267L89.8301 4.31309C89.579 4.09987 89.3454 4.03094 88.9895 3.93154L88.1484 3.61304C87.7503 3.51257 87.388 3.43616 86.9984 3.50937C86.4015 3.62266 85.781 4.00422 85.2942 4.51723C85.0345 4.79191 84.8095 5.10293 84.6545 5.43265C84.3676 6.05201 84.063 6.77772 84.1549 7.53335L84.1747 7.74336C84.2003 8.03247 84.2243 8.30501 84.3574 8.56847C84.452 8.74963 84.4915 8.9698 84.5268 9.16378C84.5883 9.52129 84.7368 9.85689 84.9169 10.1642L84.6198 9.89483L84.1185 9.4267C83.8743 9.17821 83.7765 8.92491 83.6381 8.56472L83.356 8.06774L83.2779 7.95552C83.1737 7.79894 83.1775 7.55365 83.1807 7.33936L83.1812 6.66068C83.2496 6.22141 83.4318 5.82008 83.6082 5.42944L83.7616 5.08422C83.8839 4.79832 84.0298 4.61129 84.196 4.39593L84.7272 3.7584L84.9126 3.46555L85.1403 3.11712C85.2862 2.95574 85.4973 2.8029 85.7014 2.65487L85.9376 2.47959L86.6777 1.96658C87.1485 1.70953 87.6167 1.48135 88.1954 1.45089C88.1954 1.45089 89.0216 1.4557 89.0307 1.4557C89.0729 1.46264 90.069 1.66732 90.4618 1.86771L90.8471 2.09964L91.0876 2.26103C91.5215 2.51914 91.9271 2.82855 92.3129 3.1898C92.7004 3.55426 93.0675 3.97482 93.417 4.45631C93.6842 4.8352 93.8076 5.36531 93.9177 5.83077L93.9551 5.99162C94.0321 6.31493 94.0208 6.60992 94.0118 6.92521Z" fill="#717271"/>
<path d="M80.9052 19.3504C81.0928 19.235 81.2211 19.1821 81.3819 19.0335C81.7009 18.7439 82.052 18.4318 82.3737 18.1395C82.5811 17.9503 82.735 17.7493 82.9263 17.5554C83.1625 17.3106 83.4308 17.0712 83.6525 16.8067C83.9053 16.5005 84.0288 16.0639 84.1068 15.6823C84.157 15.4258 84.2254 14.9807 84.0769 14.7482C83.9641 14.5751 83.3004 14.4244 83.2416 14.6937C82.7863 14.6803 82.292 14.908 81.9184 15.1501C81.6855 15.2959 81.5203 15.5049 81.3285 15.7138C81.2424 15.8122 81.1505 15.9014 81.0757 16.0072C81.0191 16.0911 80.9207 16.1633 80.8726 16.2429C80.8315 16.3134 80.8315 16.4155 80.7754 16.4935C80.7353 16.5609 80.6786 16.6057 80.645 16.6725C80.5664 16.8323 80.5317 16.9467 80.4248 17.0979C80.2533 17.3459 80.0037 17.4928 79.7969 17.7034C79.697 17.8124 79.6195 17.9508 79.5415 18.0769C79.3982 18.3179 79.2294 18.5141 79.0728 18.7422C79.0007 18.8347 79.0146 18.9138 78.9846 19.0105C78.8639 19.3691 78.672 19.5871 78.4802 19.9083C78.4711 19.9655 78.3492 20.1547 78.346 20.2279C78.3402 20.315 78.5379 20.5752 78.5726 20.6196C78.5726 20.618 78.5758 20.6196 78.5774 20.618L78.9649 20.4935L79.6457 20.2407L80.6177 19.6432L80.7396 19.5732C80.7198 19.5588 80.715 19.515 80.9052 19.3504Z" fill="#CC007B"/>
<path d="M77.0453 19.2643C76.9988 19.2151 76.9417 19.1959 76.8957 19.1537C76.7872 19.0548 76.7712 18.9928 76.7124 18.8523C76.5906 18.5578 76.4083 18.3799 76.1914 18.1597C76.0476 18.0143 75.9536 17.8284 75.8216 17.6798C75.603 17.4377 75.2466 17.3298 74.9783 17.1475C74.8698 17.0802 74.826 17.0081 74.7325 16.9231C74.5187 16.7264 74.1965 16.5966 73.9507 16.4496C73.7027 16.3005 73.4622 16.091 73.1795 16.0216C72.9823 15.9708 72.7648 15.9922 72.5602 15.9564C72.2198 15.8923 71.889 15.7742 71.5534 15.7186C71.1414 15.6475 70.7299 15.5705 70.3178 15.5363C69.9251 15.5027 69.5179 15.3734 69.1155 15.3824C68.9242 15.3824 68.6741 15.3552 68.5137 15.4706C68.363 15.577 68.2888 15.8896 68.2658 16.067C68.1915 16.5474 68.2145 17.1625 68.3545 17.6066C68.3876 17.722 68.4106 17.7958 68.4726 17.8898C68.6302 18.1228 68.7521 18.4162 68.9316 18.6289C69.1128 18.8453 69.287 19.0575 69.4452 19.3054C69.6141 19.5667 69.8925 19.8804 70.0533 19.9927C70.2238 20.1129 70.5786 20.2021 70.7518 20.3336C70.8229 20.3892 70.8383 20.3582 70.91 20.4244C71.0639 20.5645 71.2685 20.6558 71.4529 20.7274C72.0381 20.9636 72.6222 21.202 73.195 21.4654C73.7802 21.7284 74.3862 21.8155 74.9949 21.6637C75.3914 21.5696 75.782 21.5007 76.1604 21.3997C76.4623 21.3169 76.737 21.1357 77.002 20.9572C77.1746 20.8365 77.367 20.6628 77.4659 20.4533C77.4905 20.402 77.5706 20.2566 77.5706 20.1909L77.5535 20.1749C77.3676 19.8906 77.2767 19.5117 77.0453 19.2643Z" fill="#AAAD00"/>
<path d="M75.7045 24.2625C74.9414 24.2625 74.4492 24.8599 74.4305 25.7844V32.7454C74.4305 33.764 74.2366 34.4106 73.8181 34.6906L73.3217 35.038C72.9059 35.3255 72.7146 35.6947 72.7146 36.1639C72.7146 36.9682 73.3217 37.5368 74.2007 37.5368C75.3411 37.5368 76.5002 36.4787 76.8316 35.1464C76.9625 34.6746 76.9625 34.5009 76.9625 33.3616V25.7844C76.9625 24.8807 76.4655 24.2625 75.7045 24.2625Z" fill="#55585F"/>
<path d="M80.6209 24.2625C79.8797 24.2625 79.3822 24.8599 79.3608 25.7844V32.8095C79.3608 33.7068 79.8803 34.3101 80.6434 34.3101C81.3862 34.3101 81.88 33.7223 81.8976 32.8095V25.7844C81.8976 24.8807 81.3862 24.2625 80.6209 24.2625Z" fill="#55585F"/>
<path d="M56.3216 24.2625C53.6549 24.2625 51.5585 26.5224 51.5585 29.4108V32.7721C51.5585 33.6918 52.0876 34.3128 52.8699 34.3128C53.6346 34.3128 54.137 33.7089 54.1605 32.7721V29.3354C54.1733 27.9995 55.0951 26.9916 56.3216 26.9916C57.4903 26.9916 58.4244 27.9941 58.4463 29.2708V32.7721C58.4463 33.6918 58.9652 34.3128 59.747 34.3128C60.5123 34.3128 61.013 33.7089 61.0376 32.7721V29.3483C61.0312 26.5229 58.9326 24.2625 56.3216 24.2625Z" fill="#55585F"/>
<path d="M88.7613 24.2625C86.0931 24.2625 83.9983 26.5224 83.9983 29.4108V32.7721C83.9983 33.6918 84.5274 34.3128 85.3086 34.3128C86.0755 34.3128 86.5784 33.7089 86.5965 32.7721V29.3354C86.6126 27.9995 87.5333 26.9916 88.7613 26.9916C89.9295 26.9916 90.8642 27.9941 90.8877 29.2708V32.7721C90.8877 33.6918 91.405 34.3128 92.1857 34.3128C92.9467 34.3128 93.4522 33.7089 93.4731 32.7721V29.3483C93.4726 26.5229 91.3697 24.2625 88.7613 24.2625Z" fill="#55585F"/>
<path d="M27.8293 24.2625C27.0705 24.2625 26.5703 24.8599 26.5521 25.778V29.8271C26.5521 30.8141 25.8852 31.5831 25.0056 31.5831C24.4178 31.5831 23.8502 31.2069 23.6183 30.6474C23.4852 30.2936 23.4398 30.0526 23.4398 29.2307V25.778C23.4398 24.8781 22.9321 24.2625 22.1979 24.2625C22.1942 24.2625 22.1942 24.2625 22.1867 24.2625C22.1819 24.2625 22.1819 24.2625 22.1819 24.2625C21.4262 24.2625 20.9308 24.8599 20.9127 25.778V29.8271C20.9127 30.8141 20.2436 31.5831 19.3661 31.5831C18.7756 31.5831 18.2076 31.2069 17.974 30.6474C17.8442 30.2936 17.8046 30.0526 17.8046 29.2307V25.778C17.8046 24.8781 17.2906 24.2625 16.5264 24.2625C15.782 24.2625 15.2903 24.8599 15.2668 25.778V29.4771C15.2668 30.5597 15.4619 31.5136 15.8231 32.1421C16.5878 33.4829 17.9741 34.3128 19.3859 34.3128C20.4258 34.3128 21.4471 33.8682 22.199 33.0912C22.9722 33.8682 23.9951 34.3128 25.0243 34.3128C26.2513 34.3128 27.4312 33.7068 28.1911 32.6706C28.8238 31.8124 29.0894 30.8927 29.0894 29.562V25.7785C29.0889 24.8786 28.5727 24.2625 27.8293 24.2625Z" fill="#55585F"/>
<path d="M41.0972 30.7131C41.6594 32.8496 43.4641 34.3844 45.6177 34.3844C48.2832 34.3844 50.386 32.1266 50.386 29.2318C50.386 26.5261 48.2292 24.2625 45.6374 24.2625C43.4694 24.2625 41.6273 25.8581 41.0801 27.984H39.501C38.9549 25.8817 37.0946 24.2918 34.9239 24.2918C32.3327 24.2918 30.1983 26.5689 30.1983 29.3189C30.1983 32.1496 32.2936 34.4191 34.9036 34.4191C37.1042 34.4191 38.9126 32.8694 39.4834 30.7126L41.0972 30.7131ZM45.6374 27.0338C46.8168 27.0338 47.7905 28.0615 47.7905 29.2713C47.7905 30.626 46.8585 31.6515 45.6177 31.6515C44.4377 31.6515 43.4822 30.626 43.4822 29.3317C43.4822 28.0615 44.4564 27.0338 45.6374 27.0338ZM34.9031 31.6884C33.7242 31.6884 32.7687 30.6554 32.7687 29.3638C32.7687 28.0892 33.7435 27.06 34.9234 27.06C36.1039 27.06 37.0775 28.0892 37.0775 29.2986C37.0781 30.6554 36.1418 31.6884 34.9031 31.6884Z" fill="#55585F"/>
<path d="M68.533 34.9535V33.5486C70.5124 32.9768 71.9408 31.1887 71.9408 29.025C71.9408 26.3578 69.8449 24.2625 67.1601 24.2625C64.6383 24.2625 62.544 26.4166 62.544 29.0068C62.544 31.1844 64.0248 33.0212 66.0016 33.5678V34.9327C64.043 35.4836 62.5708 37.3401 62.5708 39.5071C62.5708 42.1037 64.6848 44.2359 67.2408 44.2359C69.8711 44.2359 71.9664 42.14 71.9664 39.5263C71.9664 37.3268 70.5369 35.521 68.533 34.9535ZM65.1187 29.0068C65.1187 27.8285 66.0721 26.8569 67.1938 26.8569C68.4528 26.8569 69.4078 27.7884 69.4078 29.0255C69.4078 30.2102 68.4533 31.1722 67.2536 31.1722C66.0721 31.1716 65.1187 30.191 65.1187 29.0068ZM67.2766 41.6628C66.0951 41.6628 65.1401 40.6956 65.1401 39.5071C65.1401 38.3287 66.0951 37.3588 67.22 37.3588C68.4774 37.3588 69.4345 38.2881 69.4345 39.5263C69.434 40.7137 68.4769 41.6628 67.2766 41.6628Z" fill="#55585F"/>
<path d="M10.9746 25.3034C10.7052 25.087 10.5219 24.9416 10.5219 24.9416C10.0613 24.5745 9.6605 24.303 9.19879 23.9375C9.12451 23.8755 8.97808 23.7125 8.90113 23.65C8.76486 23.5421 8.62699 23.432 8.49232 23.3246C8.36033 23.2166 8.21444 23.1332 8.0803 23.0248C7.98198 22.9457 7.89273 22.8367 7.7912 22.7565C7.58065 22.5866 7.37277 22.4145 7.17397 22.2472C6.94793 22.0634 6.73096 21.9228 6.51827 21.7438C6.29917 21.5632 6.0929 21.3414 5.89464 21.1678L5.72577 21.0288L5.66164 21.2137C5.56599 21.482 5.56331 21.7887 5.56759 22.0864L5.52163 22.7789C5.25497 24.4617 4.6821 26.5315 4.12152 28.5322C5.37895 28.2298 6.04373 27.8931 7.39735 27.4971C8.18184 27.2668 8.78837 26.9093 9.52851 26.6068C10.3285 26.2771 10.8666 26.2194 11.6271 25.8293C11.5042 25.7352 11.3898 25.655 11.276 25.5637C11.175 25.4787 11.0606 25.3718 10.9746 25.3034Z" fill="#00A1DF"/>
<path d="M4.73126 20.0136C4.84936 20.4096 4.9215 20.805 4.93647 20.8387C4.94074 21.1129 4.94715 21.3891 4.92792 21.6558C4.9215 21.7744 4.92792 21.8535 4.91883 21.9706C4.90601 22.0673 4.87661 22.1945 4.86326 22.2917C4.80394 22.7208 4.71523 23.1489 4.60621 23.5828C4.53941 23.8415 4.4662 24.1039 4.39032 24.3694C4.29359 24.6997 4.24443 24.9386 4.17389 25.1625C4.1119 25.3559 4.01464 25.5863 3.95105 25.7856C3.82974 26.1687 3.70683 26.561 3.58819 26.9613C3.44391 27.4561 3.38085 27.9798 3.26435 28.5046C3.17457 28.9054 2.9683 29.3548 2.89455 29.7299C2.84165 29.9913 2.75882 30.2312 2.72835 30.4535C2.71339 30.5732 2.7524 30.6828 2.72835 30.7987C2.75507 30.81 2.88173 31.1696 2.97097 31.1985C3.12327 31.2439 3.44337 30.9692 3.4594 30.9788C3.47544 30.9243 3.53582 30.8564 3.57964 30.6961C3.6101 30.5748 3.61919 30.391 3.66034 30.2333C3.74103 29.9325 3.88371 29.715 3.96441 29.4163L4.12152 28.5324C4.6821 26.5321 5.25496 24.4624 5.52163 22.7791L5.56758 22.0865C5.56331 21.7889 5.56598 21.4821 5.66164 21.2139L5.72576 21.029L5.89463 21.1679C6.09289 21.3416 6.29917 21.5634 6.51827 21.744C6.73042 21.923 6.94792 22.0641 7.17397 22.2474C7.37276 22.4146 7.58118 22.5867 7.79119 22.7567C7.89273 22.8368 7.98197 22.9458 8.0803 23.0249C8.21497 23.1329 8.36032 23.2162 8.49232 23.3247C8.62698 23.4321 8.76486 23.5422 8.90113 23.6502C8.97808 23.7127 9.1245 23.8757 9.19878 23.9377C9.65997 24.3032 10.0608 24.5747 10.5219 24.9418C10.5219 24.9418 10.7052 25.0866 10.9746 25.3036C11.0606 25.3725 11.175 25.4788 11.276 25.5633C11.3898 25.6547 11.5042 25.7348 11.6271 25.8289C11.657 25.8551 11.6907 25.8786 11.7249 25.9048C11.7879 25.9555 11.8435 26.0271 11.9082 26.0758C11.9798 26.1356 12.0605 26.173 12.1294 26.2329C12.3314 26.3884 12.5355 26.6075 12.7076 26.7454C12.823 26.8394 12.9192 26.864 13.0085 26.9313C13.1725 27.0628 13.2794 27.1488 13.2922 27.16C13.3254 27.1702 13.4697 27.1713 13.5648 27.16C13.693 27.1424 13.7684 27.0783 13.7684 27.0783C13.8582 27.0259 13.9576 26.8052 13.9902 26.6502C14.0062 26.5717 13.8902 26.4514 13.8998 26.4381C13.7994 26.3376 13.724 26.2361 13.6049 26.1271C13.4814 26.0138 13.2746 25.8887 13.1362 25.7637C12.8166 25.4922 12.4949 25.2068 12.1283 24.9188C11.9953 24.8125 11.7922 24.7018 11.6559 24.5976C11.3193 24.3363 11.0157 24.0814 10.6716 23.8244C10.3189 23.5652 9.97526 23.2852 9.64073 23.0404C9.15122 22.6872 8.68684 22.3847 8.29352 22.1074C8.15832 22.0128 8.06106 21.923 7.93441 21.838C7.72279 21.7023 7.48926 21.5788 7.29367 21.4463C7.23863 21.4078 7.21031 21.3715 7.1574 21.333C7.11786 21.3047 7.05427 21.2796 7.01258 21.2481C6.83035 21.1166 6.65187 20.9755 6.46911 20.8109C6.39215 20.7415 6.31627 20.6912 6.24039 20.6132C6.13564 20.5079 6.02877 20.3733 5.92402 20.2487L5.68782 19.8047L5.45376 19.3697C5.57827 19.3216 5.70332 19.2692 5.82837 19.2243C6.03999 19.15 6.20512 19.0768 6.46911 18.9464C6.71653 18.8251 7.01472 18.7396 7.26375 18.6066C7.50743 18.4719 7.69928 18.2977 7.94296 18.1443C8.26039 17.9471 8.57942 17.7296 8.89472 17.4907C9.12023 17.3208 9.37246 17.1813 9.67493 16.9163C9.9138 16.7025 10.197 16.3749 10.4423 16.1323C10.7127 15.863 10.8939 15.6118 11.1477 15.3163C11.2236 15.2324 11.3567 15.1255 11.4341 15.0347C11.9333 14.4479 12.4057 13.8131 12.7701 13.1846C13.0149 12.7672 13.2131 12.352 13.3451 11.9528C13.4974 11.4986 13.5242 11.0957 13.4819 10.6943C13.4675 10.5436 13.3665 10.3518 13.3222 10.2134C12.9962 10.2177 12.7776 10.231 12.5612 10.3261C11.9472 10.5885 11.65 11.2758 11.432 11.9256C11.3588 12.1292 11.2396 12.3568 11.1648 12.5679C11.0467 12.8869 10.9676 13.1873 10.7726 13.471C10.6603 13.6367 10.4306 13.8173 10.2868 13.9798C9.95175 14.3694 9.64233 14.7408 9.2052 15.1079C9.03259 15.2554 8.89739 15.4371 8.72104 15.5787C8.50087 15.7561 8.23741 15.8897 8.01938 16.057C7.67416 16.3215 7.34017 16.5791 7.03877 16.819C6.58507 17.1771 6.1132 17.4298 5.74073 17.6527C5.48475 17.8087 5.24481 17.9407 4.99472 18.0759C4.97922 17.9883 4.95945 17.875 4.96265 17.8835C4.94341 17.7579 4.81943 17.4175 4.68958 17.1161C4.63293 16.9884 4.59552 16.8618 4.54422 16.756C4.47208 16.6047 4.39406 16.4877 4.36253 16.4006C4.27649 16.1847 4.10709 16.1772 4.10709 16.1772C4.10709 16.1772 3.99006 16.1964 3.90135 16.2493C3.86341 16.275 3.84684 16.3177 3.81798 16.345C3.81104 16.3904 3.8431 16.5139 3.86341 16.6229C3.88585 16.7346 3.89974 16.8382 3.91898 16.9291C3.95105 17.0622 3.95692 17.2572 4.01517 17.4277L4.10549 17.9332C4.10549 17.9332 4.25405 18.3944 4.26741 18.4339C4.10121 18.5093 3.92646 18.5857 3.7282 18.6669C3.5743 18.7327 3.29321 18.8171 3.12274 18.8887C2.86623 19.0004 2.49322 19.1821 2.02135 19.3606C1.79156 19.4461 1.49765 19.5118 1.26145 19.6043C0.969134 19.724 0.675752 19.8063 0.422984 19.9281C0.279233 19.9981 0.152581 20.1055 0.0323431 20.1729C-0.146679 20.2787 -0.335319 20.3663 -0.420822 20.4678C-0.566177 20.6292 -0.510066 20.7895 -0.263176 20.9109C-0.0975144 20.9921 0.314503 20.858 0.314503 20.858C0.624985 20.7735 0.930123 20.6928 1.23045 20.6148C1.542 20.532 1.85836 20.4839 2.16083 20.4059C2.42482 20.3358 2.67171 20.2407 2.92875 20.1707C3.51498 20.0131 4.08304 19.8458 4.64095 19.6614L4.73126 20.0136Z" fill="#717271"/>
<path d="M96.5731 44.8666C96.9205 44.9109 97.1412 45.0082 97.4939 45.068C97.6697 45.0974 97.8471 45.1845 98.0293 45.1845C98.1624 45.1845 98.3922 45.2145 98.5103 45.2695H98.5215C98.5343 45.2802 98.5418 45.2845 98.5552 45.293C98.6695 45.3101 98.7866 45.3235 98.9057 45.3497C99.2066 45.4133 99.5358 45.5495 99.8441 45.642C100.064 45.7072 100.221 45.7419 100.438 45.8109C100.83 45.9364 101.073 45.9193 101.446 45.9685C101.557 45.984 101.695 46.0316 101.807 46.0385C101.807 46.0385 102.055 46.0823 101.909 45.8766C101.667 45.6126 101.505 45.5185 101.291 45.2369C101.157 45.0654 100.981 44.8735 100.857 44.6924C100.612 44.3306 100.48 44.1297 100.263 43.746C100.128 43.5151 100.221 43.4665 100.104 43.2255C99.9537 42.9134 99.7121 42.3827 99.6026 42.0509C99.5032 41.75 99.4257 41.377 99.3519 41.1435C99.237 40.786 99.2189 40.2361 99.1409 39.8743C99.0826 39.614 98.9992 38.6382 98.9394 38.0873C98.9111 37.8131 98.9314 37.5566 98.9276 37.2921C98.918 37.2777 98.9116 37.2675 98.8972 37.2531C98.8582 37.205 98.7919 37.0858 98.5541 37.2568C98.4595 37.3295 98.149 37.6459 98.1148 37.702C98.095 37.7351 97.885 38.0926 97.8701 38.1316C97.6344 38.3865 97.4356 38.7211 97.2977 38.9487C96.673 39.9977 96.1686 40.8137 95.8586 41.2894C95.3419 42.0712 94.8646 42.7226 94.3928 43.5301C94.2175 43.8293 94.0588 44.1077 94.2939 44.3231C94.4825 44.4904 94.9325 44.5887 95.2275 44.6945C95.4311 44.7731 95.6342 44.8404 95.8351 44.9045C95.8629 44.8847 95.8917 44.8644 95.9233 44.8575C96.1044 44.8105 96.3925 44.8436 96.5731 44.8666Z" fill="#D13239"/>
<path d="M101.44 32.6557C101.886 31.8856 101.298 31.2983 100.909 30.6912C99.788 30.1488 98.521 30.1488 97.9663 31.2972C97.8466 31.9845 97.5152 32.6765 98.1688 33.2189C99.3803 33.6373 100.473 33.5962 101.44 32.6557Z" fill="#00A1DF"/>
<path d="M83.4992 38.8654C83.4644 39.473 83.2181 39.9454 82.9776 40.405C82.8184 40.7048 82.6586 41.0126 82.5549 41.3573L82.4138 41.8158L82.2428 42.3785L82.1872 42.6126L82.1269 42.8771L82.0408 43.2213L81.9879 43.4382L81.9222 43.6974L81.826 44.0661C81.8148 44.1201 81.7998 44.1677 81.78 44.2163C81.8019 44.2195 81.8719 44.2393 81.958 44.2745C81.9601 44.2745 82.0034 44.266 82.0034 44.266C82.1301 44.2462 82.2519 44.2435 82.3689 44.2425C82.4528 44.2061 82.5399 44.1741 82.6516 44.1399C83.0476 44.0244 83.0102 43.9042 83.3538 43.6461C83.5355 43.5114 83.9416 43.3452 84.1233 43.2143C84.3553 43.0454 84.7534 42.8167 84.988 42.681L85.6501 42.2401C85.6993 42.2182 85.8013 42.1787 85.9002 42.1327C85.9002 42.1327 86.1134 42.0413 85.9328 41.7394C85.7335 41.4839 85.4652 41.1574 85.3653 41.0206C85.0863 40.6412 85.2001 40.7262 84.9917 40.49C84.8613 40.3505 84.7577 40.0496 84.6139 39.9182C84.4862 39.8076 84.1127 39.022 83.978 38.9173C83.7209 38.7046 83.6082 38.3107 83.3453 38.1418C83.3453 38.1418 83.3431 38.1461 83.341 38.1472C83.4634 38.2984 83.5024 38.5116 83.5024 38.7142C83.5034 38.7649 83.5008 38.8184 83.4992 38.8654Z" fill="#F5C400"/>
<path d="M80.932 46.1722C80.8855 46.0455 80.824 45.8756 80.7855 45.7783C80.5103 45.8676 80.2501 45.9616 79.9893 46.1438L79.8846 46.2187C79.6184 46.4078 79.3673 46.5858 79.0771 46.7563L78.8516 46.8765C78.8441 46.8867 78.6159 47.1245 78.6159 47.1245L78.2376 47.544C78.1307 47.677 78.1499 47.5883 78.0414 47.7256L77.4654 48.2013L76.9662 48.5561C76.9662 48.5561 76.8214 48.7218 76.6584 48.8735C76.5371 48.9825 76.3827 49.0905 76.38 49.0942C76.3442 49.1316 76.3292 49.1664 76.3292 49.1947C76.3292 49.2305 76.3501 49.2572 76.3581 49.2684L76.6312 49.4533C76.768 49.5239 76.9775 49.5944 77.0838 49.736L77.9714 50.0978L78.5384 50.4313C78.5384 50.4313 78.8607 50.6472 78.8441 50.6338C78.8441 50.6338 79.3021 50.8502 79.3053 50.8535L79.4202 50.9299C79.4202 50.9299 79.6847 51.0576 79.7194 51.0742C79.7563 51.1062 79.7852 51.1158 79.8087 51.1062C79.8904 51.0726 79.9578 50.8214 79.9743 50.6675C79.9695 50.4174 80.0545 50.2095 80.1352 50.0129C80.2089 49.8269 80.2848 49.6372 80.2939 49.4133L80.4275 48.9702C80.5456 48.6357 80.7113 48.1815 80.7086 47.8838L80.7775 47.444C80.7775 47.444 80.925 46.6659 80.9758 46.4212C80.9704 46.3902 80.963 46.3576 80.9597 46.325C80.9501 46.2689 80.9421 46.2219 80.932 46.1722Z" fill="#AAAD00"/>
<path d="M89.711 43.7777C89.5886 43.2507 88.4637 43.3774 88.3338 43.3934C88.2205 43.4089 88.1163 43.4303 88.0169 43.4608C87.7423 43.5436 87.5729 43.5377 87.5729 43.5377C87.3767 43.5554 87.1688 43.5741 86.9679 43.6067L86.5185 43.6638C86.2572 43.6948 86.0092 43.7221 85.75 43.8001C85.4673 43.8824 85.1654 43.9636 84.8571 43.9871C84.6775 44.001 84.5193 43.9984 84.3665 43.9941C84.1004 43.9861 83.8497 43.9797 83.5564 44.0748C83.3934 44.1261 83.232 44.1512 83.0642 44.1758L82.8344 44.2111C82.6912 44.2378 82.3823 44.2442 82.3684 44.2442C82.2514 44.2453 82.1301 44.2479 82.0029 44.2677C82.0029 44.2677 81.9596 44.2762 81.9575 44.2762C81.8714 44.241 81.8014 44.2207 81.7795 44.218C81.7993 44.1694 81.8142 44.1213 81.8255 44.0678L81.9216 43.6991L81.9874 43.4399L82.0403 43.223L82.1263 42.8788L82.1867 42.6143L82.2423 42.3802L82.4133 41.8175L82.5544 41.359C82.658 41.0138 82.8178 40.706 82.9771 40.4067C83.217 39.9471 83.4634 39.4747 83.4986 38.8671C83.5002 38.8196 83.5029 38.7667 83.5029 38.7164C83.5029 38.5139 83.4639 38.3012 83.3415 38.1494C83.2779 38.073 83.1983 38.0062 83.0754 37.9768L82.9541 37.9229L82.8461 37.9351C82.6992 37.9512 82.5143 37.9715 82.4122 38.1232C82.3481 38.2114 82.3224 38.3301 82.2968 38.4353L82.2097 38.733L82.1381 38.9671L82.0841 39.215C82.02 39.5389 81.8848 39.8258 81.8848 39.8258C81.8404 39.9135 81.7955 40.0043 81.7592 40.1171C81.7255 40.209 81.7079 40.3014 81.6908 40.3923C81.6673 40.4986 81.6464 40.6066 81.5957 40.7183C81.5022 40.9256 81.4765 41.11 81.4524 41.297C81.4337 41.4402 81.4161 41.5765 81.3675 41.7219L81.2195 42.2327L81.1227 42.5779C81.018 42.9339 80.8865 43.395 80.8342 43.8017C80.6546 43.6852 80.5173 43.5815 80.4189 43.4757C80.4189 43.4757 79.7023 42.7548 79.5377 42.5373C79.3763 42.3278 79.1829 42.1574 78.9953 41.9944C78.8852 41.8971 78.7693 41.802 78.6629 41.693C78.485 41.5161 78.2578 41.2922 78.0136 40.9801C78.0136 40.9801 77.662 40.5237 77.5487 40.3634C77.452 40.217 77.3542 40.0903 77.2286 39.938C77.1308 39.8248 77.0779 39.7932 77.0068 39.7483L76.8887 39.6778L76.7493 39.6431C76.7493 39.6431 76.5948 39.7061 76.5563 39.7681C76.5131 39.8354 76.5008 39.9065 76.5008 39.9728C76.5008 40.0235 76.5088 40.069 76.5136 40.0957C76.5499 40.2528 76.6408 40.3356 76.7225 40.4094L76.8091 40.4895C76.9304 40.6344 77.0095 40.8155 77.0923 41.0122C77.1655 41.1821 77.2409 41.3585 77.3499 41.5102C77.3499 41.5102 77.8127 42.2119 77.9511 42.323L78.143 42.5309C78.2167 42.6218 78.2776 42.7367 78.3471 42.8548C78.4476 43.0311 78.5464 43.2112 78.688 43.3379C78.7661 43.4095 78.8724 43.5527 78.9606 43.6628C78.9606 43.6628 79.4736 44.3131 79.6093 44.5456C79.6793 44.6599 79.7392 44.7454 79.8001 44.8251C79.5778 44.8988 79.3453 44.9816 79.115 45.0939C79.115 45.0939 78.2322 45.5625 77.9981 45.6625C77.833 45.7309 77.6583 45.7864 77.4867 45.8393C77.2954 45.9008 77.0971 45.9633 76.9176 46.0456C76.7215 46.1359 76.5558 46.2508 76.3934 46.362L76.1032 46.5512C75.9381 46.6479 75.285 46.9514 75.145 47.03L74.5032 47.404C74.0244 47.667 73.6818 47.8577 73.614 48.3542C73.607 48.4173 73.6006 48.4771 73.6006 48.5327C73.6006 48.8485 73.7454 49.0441 74.0741 49.1991C74.5454 49.4219 74.7277 49.3487 75.2177 49.1435L75.4133 49.0238C75.5576 48.895 75.7035 48.7999 75.8654 48.7037L76.0449 48.5915C76.0449 48.5915 76.5937 48.2072 76.7327 48.1319L77.142 47.9261C77.3061 47.8481 77.4734 47.7669 77.6353 47.675C77.8197 47.5681 77.9185 47.4847 78.0462 47.3779L78.1633 47.2827C78.3327 47.1475 78.5245 47.0476 78.7292 46.9429L78.8516 46.8766L79.0771 46.7564C79.3673 46.5859 79.6184 46.4085 79.8845 46.2188L79.9893 46.1439C80.2501 45.9617 80.5108 45.8677 80.7855 45.7784C80.824 45.8762 80.886 46.0456 80.932 46.1723C80.9421 46.222 80.9501 46.269 80.9581 46.3224C80.9613 46.355 80.9694 46.3876 80.9742 46.4186C80.9939 46.5121 81.0137 46.5955 81.0404 46.6874L81.0933 46.8868C81.142 47.0807 81.2195 47.24 81.2943 47.395C81.3787 47.5713 81.4615 47.7386 81.4952 47.9518C81.5839 48.506 81.8613 49.0671 82.1306 49.6111C82.3727 50.1075 82.4951 50.4004 82.4951 50.4004C82.6313 50.728 82.883 51.3372 83.1689 51.458C83.302 51.5114 83.3779 51.4793 83.4158 51.4398C83.457 51.3992 83.4735 51.3399 83.4735 51.2725C83.4735 51.2057 83.4564 51.1282 83.4308 51.062L83.3346 50.8349C83.2817 50.7157 83.2325 50.6077 83.1978 50.4848L83.0417 50.0103C82.9279 49.6619 82.8184 49.3391 82.7473 48.9907C82.7296 48.8929 82.6917 48.7924 82.6575 48.693C82.6137 48.5701 82.5688 48.4397 82.5549 48.3248C82.5276 48.1169 82.4657 47.9256 82.4101 47.7402L82.2097 46.9851C82.1589 46.7713 82.106 46.5463 82.036 46.3203L82.005 46.2214C81.9163 45.943 81.8265 45.6539 81.8212 45.3776C81.8212 45.3685 81.8196 45.3343 81.8207 45.3258C81.8607 45.3087 81.9222 45.2841 81.9222 45.2841C82.2268 45.1575 82.5442 45.0223 82.8616 44.9352C83.3923 44.7791 83.9486 44.746 84.4883 44.7182L84.9618 44.6861C85.128 44.6728 85.2782 44.6386 85.4209 44.6092L85.6939 44.5515C85.8233 44.5312 85.9563 44.5205 86.0835 44.5114C86.2609 44.4996 86.4437 44.4868 86.619 44.4387C86.8466 44.3799 87.1528 44.3104 87.4804 44.2987L87.6888 44.303C87.8128 44.3104 87.9427 44.3185 88.0618 44.2896C88.0618 44.2896 88.3461 44.203 88.4541 44.2041C88.6058 44.2073 88.725 44.203 88.8661 44.187L88.9874 44.1785C89.2108 44.1683 89.5496 44.1512 89.6746 43.9855C89.7152 43.9278 89.7291 43.8578 89.711 43.7777Z" fill="#717271"/>
<path d="M103.956 46.5564C103.894 46.3972 103.824 46.309 103.675 46.2032C103.603 46.1535 103.42 45.9985 103.405 45.9846C103.166 45.7831 102.941 45.564 102.728 45.331C102.584 45.1761 102.432 45.0601 102.298 44.8918C102.169 44.724 102.058 44.5027 101.938 44.3253C101.736 44.0218 101.62 43.8802 101.452 43.5531C101.374 43.4062 101.21 43.0695 101.138 42.9193C101.007 42.6366 100.884 42.3032 100.765 42.0109C100.703 41.8612 100.702 41.6843 100.647 41.5288C100.555 41.2803 100.545 41.1521 100.454 40.8341C100.392 40.6204 100.308 40.0721 100.258 39.8524C100.183 39.5206 100.164 38.7318 100.128 38.4646C100.072 38.0435 100.045 37.6294 100.047 37.2339L100.026 36.4655L99.9312 35.8931L99.8463 34.8906C99.6336 34.3845 99.3722 34.5053 99.1889 34.9088C99.1425 35.0098 99.1029 35.1231 99.0676 35.2476C99.0463 35.3341 99.0254 35.4266 99.0121 35.5196C98.9725 35.7264 98.9479 35.9033 98.9298 36.0796C98.8897 36.4606 98.9276 37.2804 98.9276 37.2927C98.9319 37.5572 98.9116 37.8143 98.9394 38.0879C98.9992 38.6383 99.0826 39.6141 99.1409 39.8749C99.2189 40.2367 99.237 40.7866 99.3519 41.1441C99.4257 41.3781 99.5032 41.7506 99.6026 42.0515C99.7116 42.3833 99.9531 42.914 100.104 43.2261C100.221 43.4665 100.128 43.5157 100.263 43.7466C100.48 44.1308 100.612 44.3317 100.857 44.693C100.98 44.8741 101.157 45.0654 101.291 45.2375C101.505 45.5191 101.667 45.6132 101.909 45.8772C102.054 46.0829 101.807 46.0391 101.807 46.0391C101.695 46.0322 101.557 45.9846 101.446 45.9691C101.073 45.9199 100.83 45.937 100.438 45.8115C100.221 45.742 100.064 45.7078 99.8441 45.6426C99.5358 45.5501 99.2066 45.4139 98.9057 45.3503C98.786 45.3236 98.6695 45.3107 98.5552 45.2936C98.5423 45.2851 98.5349 45.2808 98.5215 45.2701H98.5103C98.3916 45.2145 98.1624 45.1851 98.0293 45.1851C97.8471 45.1851 97.6697 45.098 97.4939 45.0686C97.1417 45.0088 96.921 44.9115 96.5731 44.8672C96.3925 44.8442 96.1044 44.8116 95.9233 44.8581C95.8917 44.865 95.8629 44.8854 95.8351 44.9051C95.7282 44.9847 95.6662 45.1451 95.7945 45.2498C95.9083 45.3407 96.0724 45.3711 96.2156 45.4064C96.4342 45.4582 96.6212 45.5277 96.8291 45.6004C97.015 45.6645 97.2053 45.7372 97.3971 45.7778C97.5302 45.804 97.5708 45.7944 97.6943 45.836C97.7557 45.8547 97.8284 45.8895 97.8963 45.9135C97.9139 45.9226 98.219 46.0065 98.3633 46.0594C98.4697 46.0979 98.646 46.209 98.7572 46.2486C99.0628 46.3533 99.3936 46.4575 99.734 46.5543C99.9799 46.6237 100.247 46.6986 100.5 46.776C100.528 46.7846 100.882 46.8765 101.022 46.916C101.187 46.962 101.342 47.0048 101.509 47.0459C101.695 47.0919 101.876 47.133 102.069 47.14C102.435 47.1533 102.818 47.1907 103.186 47.1731C103.545 47.1565 104.128 46.993 103.956 46.5564Z" fill="#717271"/>
<path d="M84.4408 14.5356C84.2147 14.31 84.1105 14.2502 83.7995 14.2502C83.5954 14.2502 83.5018 14.1866 83.3057 14.2074C83.163 14.2272 82.7703 14.3143 82.6281 14.349C82.2952 14.4356 82.1365 14.6398 81.8281 14.768C81.531 14.8941 81.3114 15.141 81.0613 15.3452C80.7759 15.5798 80.5739 15.9357 80.3233 16.2034C80.0465 16.4914 79.938 16.7976 79.6665 17.0461C79.4127 17.2786 79.169 17.6094 78.9932 17.9204C78.8767 18.1256 78.7596 18.2656 78.625 18.4564C78.5421 18.5713 78.5026 18.7076 78.4107 18.8396C78.2509 19.0693 78.1611 19.2858 77.9816 19.483C77.9212 19.5471 77.6652 18.994 77.6652 18.994C77.5701 18.8331 77.3489 18.5659 77.2527 18.4361C77.1645 18.3142 77.1014 18.1732 76.9769 18.0743C76.5334 17.705 76.2533 17.3229 75.7521 17.0055C75.5228 16.8655 75.4266 16.7431 75.028 16.4391C75.0387 16.4278 74.4573 15.9923 74.2355 15.8662C74.0281 15.7449 73.7433 15.6829 73.5702 15.5301C73.4659 15.4339 73.4077 15.3596 73.2586 15.296C72.2983 14.8915 71.5453 14.4971 70.5177 14.341C70.1976 14.2951 69.877 14.1818 69.5366 14.2C69.4174 14.2042 69.015 14.2288 68.9097 14.2427C68.7441 14.271 68.4079 14.379 68.2727 14.4602C67.9035 14.6846 67.7613 15.0395 67.6518 15.5194C67.6026 15.7395 67.6384 16.0062 67.6384 16.2381C67.6384 16.3878 67.6106 16.6758 67.6443 16.8505C67.6582 16.8404 67.6742 17.2449 67.6854 17.2358C67.6854 17.3694 67.7159 17.4181 67.7479 17.5527C67.7843 17.6821 67.8452 17.8023 67.8794 17.9396C67.9264 18.1326 68.0499 18.2181 68.1188 18.4035C68.1813 18.5675 68.2385 18.5483 68.2946 18.7076C68.4191 19.0571 68.666 19.2719 68.8739 19.5647C69.023 19.7758 69.2159 19.9538 69.3618 20.0964C69.4623 20.2012 69.6023 20.3348 69.7172 20.4235C69.8364 20.5074 69.963 20.5491 70.0774 20.6592C70.2243 20.789 70.8768 21.3464 71.081 21.4645C71.2771 21.5746 72.1513 21.8145 72.3368 21.8637C72.6649 21.9535 72.9989 22.024 73.3484 22.0892C73.7348 22.1544 74.0415 22.1501 74.4225 22.1918C74.6304 22.2132 74.8458 22.1918 75.0633 22.1827C75.2188 22.1736 75.3641 22.1405 75.5143 22.1202C75.7505 22.0887 75.9455 22.063 76.1662 21.9599C76.3559 21.8733 76.535 21.7787 76.7268 21.6782C76.8978 21.5906 77.0913 21.4746 77.2297 21.3555C77.3387 21.262 77.4082 21.1332 77.5167 21.0391C77.638 20.9328 77.6855 20.9109 77.7571 20.7682C78.0088 20.859 77.9949 21.177 78.0526 21.3079C78.1136 21.4495 78.1451 21.503 78.152 21.6697C78.1569 21.7921 78.2039 21.9091 78.2076 22.0229C78.2204 22.2826 78.1852 22.4574 78.1456 22.7112C78.1291 22.7828 78.0542 22.9469 78.0981 23.0345C78.1895 23.2077 78.3631 22.9864 78.4118 22.9202C78.5828 22.669 78.7276 22.5648 78.7575 22.257C78.7655 22.1565 78.8526 22.0037 78.827 21.8947C78.8329 21.8033 78.8206 21.604 78.8377 21.4955L78.8099 21.2946C78.7377 20.9867 78.7928 21.0765 78.7121 20.8221C78.6854 20.7441 78.6303 20.6875 78.5747 20.618C78.5405 20.5737 78.3423 20.3134 78.3482 20.2263C78.3514 20.1531 78.4732 19.9645 78.4823 19.9067C78.6741 19.5856 78.8665 19.3675 78.9868 19.009C79.0167 18.9122 79.0028 18.8331 79.0749 18.7407C79.2315 18.5125 79.4004 18.3164 79.5436 18.0754C79.6216 17.9493 79.6991 17.8108 79.799 17.7018C80.0059 17.4913 80.2554 17.3443 80.427 17.0964C80.5338 16.9451 80.5686 16.8308 80.6471 16.671C80.6808 16.6042 80.7374 16.5593 80.7775 16.492C80.8331 16.4139 80.8331 16.3119 80.8748 16.2413C80.9229 16.1617 81.0207 16.0896 81.0778 16.0057C81.1527 15.8999 81.2446 15.8106 81.3306 15.7123C81.5225 15.5033 81.6881 15.2949 81.9206 15.1485C82.2936 14.907 82.7884 14.6788 83.2437 14.6921C83.3025 14.4223 83.9668 14.573 84.079 14.7466C84.227 14.9791 84.1586 15.4242 84.1089 15.6808C84.0309 16.0628 83.9075 16.4989 83.6547 16.8051C83.4329 17.0696 83.1646 17.3091 82.9284 17.5538C82.7371 17.7473 82.5832 17.9482 82.3759 18.1379C82.0536 18.4302 81.7026 18.7423 81.3841 19.0319C81.2232 19.18 81.0949 19.2334 80.9074 19.3488C80.7171 19.514 80.7214 19.5578 80.7417 19.5711C80.7529 19.5824 80.7642 19.585 80.7642 19.5893C80.8123 19.5877 81.0298 19.4856 81.1527 19.4081C81.2708 19.3317 81.5128 19.2061 81.6197 19.1217C81.9206 18.8957 82.2257 18.6183 82.5244 18.3944C82.6682 18.2838 82.8205 18.1277 82.953 18.0112C83.1128 17.8691 83.3292 17.7547 83.4853 17.6094C83.7477 17.3678 83.9796 17.1327 84.1971 16.8452C84.3056 16.6945 84.3868 16.4 84.5236 16.1019C84.6321 15.871 84.639 15.5584 84.6545 15.2912C84.6642 15.0096 84.6412 14.7333 84.4408 14.5356ZM77.4653 20.4524C77.3659 20.6624 77.1741 20.836 77.0015 20.9563C76.7364 21.1348 76.4618 21.3159 76.1598 21.3988C75.7815 21.4998 75.3914 21.5687 74.9943 21.6628C74.3856 21.8145 73.7796 21.7274 73.1945 21.4645C72.6221 21.201 72.0375 20.9632 71.4524 20.7265C71.268 20.6544 71.0633 20.563 70.9094 20.4235C70.8378 20.3572 70.8223 20.3888 70.7512 20.3326C70.5786 20.2012 70.2238 20.1119 70.0528 19.9917C69.8919 19.8795 69.614 19.5658 69.4446 19.3045C69.2865 19.0565 69.1122 18.8449 68.9311 18.6279C68.7515 18.4158 68.6297 18.1219 68.472 17.8889C68.4106 17.7948 68.3871 17.7211 68.3539 17.6056C68.2139 17.1616 68.191 16.547 68.2652 16.0661C68.2882 15.8886 68.3625 15.576 68.5132 15.4697C68.6735 15.3542 68.9236 15.3815 69.1149 15.3815C69.5173 15.3724 69.9245 15.5023 70.3173 15.5354C70.7293 15.5691 71.1403 15.6466 71.5528 15.7176C71.8884 15.7732 72.2192 15.8913 72.5596 15.9554C72.7643 15.9912 72.9818 15.9699 73.179 16.0206C73.4617 16.0901 73.7021 16.299 73.9501 16.4487C74.1959 16.5951 74.5182 16.7255 74.7319 16.9222C74.8254 17.0071 74.8693 17.0793 74.9777 17.1466C75.246 17.3288 75.6025 17.4368 75.821 17.6788C75.953 17.8274 76.0476 18.0134 76.1908 18.1587C76.4073 18.3789 76.59 18.5569 76.7119 18.8513C76.7701 18.9924 76.7867 19.0544 76.8951 19.1527C76.9411 19.1949 76.9983 19.2142 77.0448 19.2633C77.2767 19.5107 77.3676 19.8896 77.5525 20.1729L77.5696 20.1889C77.5701 20.2557 77.4899 20.4016 77.4653 20.4524Z" fill="#717271"/>
<path d="M37.8235 42.0531C37.8235 42.3673 37.5868 42.5987 37.2785 42.5987C36.9685 42.5987 36.7035 42.3668 36.7035 42.0531V37.7635C36.7035 37.4568 36.9562 37.2302 37.2704 37.2302C37.5783 37.2302 37.8235 37.4568 37.8235 37.7635V42.0531Z" fill="#55585F"/>
<path d="M33.0974 43.9747C33.0974 43.9747 36.4154 43.9747 36.4363 43.9747C36.7168 43.9747 36.7035 44.243 36.7035 44.243V45.8504C36.7035 46.1636 36.96 46.411 37.2763 46.411C37.582 46.411 37.823 46.1636 37.823 45.8504V43.7711C37.823 43.3329 37.5644 43.0625 37.0652 43.0625H33.0968C32.8393 43.0625 32.6378 43.2869 32.6378 43.5397C32.6383 43.7941 32.8398 43.9747 33.0974 43.9747Z" fill="#55585F"/>
<path d="M46.3749 41.4978H39.532C39.2723 41.4978 39.074 41.7126 39.074 41.9718C39.074 42.2347 39.2723 42.4415 39.532 42.4415H42.352V43.093H41.0213C40.822 43.093 40.3806 43.2255 40.3806 43.7695V45.6105C40.3806 46.1326 40.8087 46.2838 40.9994 46.2838H44.9091C45.095 46.2838 45.5215 46.1283 45.5215 45.6265V43.7476C45.5215 43.2255 45.0672 43.093 44.885 43.093H43.5576V42.4415H46.3744C46.6282 42.4415 46.8297 42.2347 46.8297 41.9718C46.8302 41.7132 46.6287 41.4978 46.3749 41.4978ZM44.3378 44.243V45.1237C44.3378 45.2968 44.1582 45.3364 44.1 45.3364H41.7807C41.7214 45.3364 41.5418 45.2957 41.5418 45.0879V44.2537C41.5418 44.0608 41.6995 43.9961 41.7695 43.9961H44.1272C44.1946 43.9966 44.3378 44.0656 44.3378 44.243Z" fill="#55585F"/>
<path d="M45.5295 39.9326H44.6547V38.556H45.3916C45.6465 38.556 45.848 38.3444 45.848 38.0788C45.848 37.8202 45.6465 37.6069 45.3916 37.6069H40.5121C40.2614 37.6069 40.0621 37.8196 40.0621 38.0788C40.0621 38.3439 40.2614 38.556 40.5121 38.556H41.1459V39.9326H40.3737C40.1273 39.9326 39.9173 40.1218 39.9173 40.3815C39.9173 40.6444 40.1273 40.8566 40.3737 40.8566H45.5295C45.7812 40.8566 45.9907 40.645 45.9907 40.3815C45.9907 40.1213 45.7812 39.9326 45.5295 39.9326ZM42.2125 38.5555H43.5859L43.5923 39.9321H42.2125V38.5555Z" fill="#55585F"/>
<path d="M35.8602 41.2099C35.1024 40.7546 34.1245 39.8531 34.1245 38.7517V38.0949C34.1068 37.7631 33.8541 37.5071 33.5377 37.5071C33.2059 37.5071 32.9355 37.7631 32.92 38.0949V38.6806C32.92 39.836 31.9981 40.7637 31.0881 41.3451L31.0923 41.3504C30.9347 41.5038 30.9315 41.794 31.0672 41.9799C31.2612 42.2691 31.5711 42.2626 31.8116 42.1061C31.8116 42.105 31.818 42.105 31.8212 42.0975C32.2242 41.8399 32.5197 41.5786 32.8232 41.2826C33.1706 40.9309 33.4704 40.5708 33.5382 40.3805C33.6237 40.582 33.8284 40.8593 34.2249 41.2623C34.5194 41.5262 34.8064 41.7453 35.2082 41.9805C35.4402 42.1226 35.7314 42.1184 35.9345 41.8437C36.0825 41.6502 36.0483 41.3291 35.8602 41.2099Z" fill="#55585F"/>
<path d="M18.5384 41.1537C19.8022 41.1537 20.8181 40.2073 20.8181 39.0819C20.8181 37.9586 19.8027 37.0298 18.5384 37.0298C17.2804 37.0298 16.2683 37.9586 16.2683 39.0819C16.2683 40.2068 17.2809 41.1537 18.5384 41.1537ZM18.5384 37.9762C19.1941 37.9762 19.6937 38.4689 19.6937 39.0813C19.6937 39.7034 19.1791 40.1897 18.5384 40.1897C17.9318 40.1897 17.3873 39.7034 17.3873 39.0813C17.3873 38.4689 17.9174 37.9762 18.5384 37.9762ZM22.0205 41.4396H15.0953C14.8425 41.4396 14.632 41.6464 14.632 41.8949C14.632 42.1477 14.843 42.3636 15.0953 42.3636H17.9687V42.9231C16.9929 43.1518 16.3281 43.9128 16.3281 44.7988C16.3281 45.8542 17.3445 46.736 18.5806 46.736C19.854 46.736 20.8571 45.8542 20.8571 44.7988C20.8571 43.9085 20.1693 43.1203 19.1946 42.9177V42.3636H22.021C22.2861 42.3636 22.4897 42.1477 22.4897 41.8949C22.4891 41.6464 22.2855 41.4396 22.0205 41.4396ZM19.6707 44.7983C19.6707 45.361 19.1791 45.8275 18.556 45.8275C17.9735 45.8275 17.4664 45.3535 17.4664 44.7983C17.4664 44.196 17.9922 43.7557 18.5801 43.7557C19.2128 43.7557 19.6707 44.2067 19.6707 44.7983Z" fill="#55585F"/>
<path d="M29.961 43.1417C29.961 43.4612 29.7302 43.7102 29.4069 43.7102C29.0873 43.7102 28.8351 43.4607 28.8351 43.1417V37.7635C28.8351 37.4504 29.0878 37.2249 29.4069 37.2249C29.7302 37.2249 29.961 37.4504 29.961 37.7635V43.1417Z" fill="#55585F"/>
<path d="M28.0917 41.4189C27.5397 41.1475 27.1501 40.9294 26.8225 40.535C26.5147 40.1476 26.2716 39.5892 26.2716 39.0142V38.6705H27.5616C27.8176 38.6705 28.0303 38.4835 28.0303 38.2259C28.0303 37.9694 27.8176 37.7637 27.5616 37.7637H23.8502C23.5873 37.7637 23.3784 37.9694 23.3784 38.2259C23.3784 38.4835 23.5873 38.6705 23.8502 38.6705H25.0703V39.0371C25.0703 39.5811 24.8362 40.0653 24.5722 40.4704C24.2216 40.9743 23.7925 41.3553 23.2934 41.6508C23.1149 41.7647 23.0604 42.0821 23.1838 42.2782C23.3394 42.5807 23.6514 42.5999 23.9079 42.4663L23.9571 42.4455C24.5102 42.1355 24.6566 41.9635 25.0697 41.5333C25.4486 41.1651 25.6356 40.8006 25.7147 40.6168C25.8419 40.8295 26.13 41.2618 26.4746 41.5333C26.8193 41.8368 27.0395 41.9875 27.5247 42.2253H27.5237L27.5653 42.2462C27.8272 42.3466 28.1248 42.2253 28.2291 41.9726C28.3162 41.7839 28.2451 41.5044 28.0917 41.4189Z" fill="#55585F"/>
<path d="M29.6794 45.3096C29.6794 45.3096 26.4303 45.3096 26.4137 45.3096C26.115 45.3096 26.1289 45.0729 26.1289 45.0729V43.7818C26.1289 43.474 25.8836 43.218 25.5758 43.218C25.2584 43.218 25.0029 43.474 25.0029 43.7818V45.579C25.0029 46.0124 25.2755 46.2886 25.7869 46.2886H29.6799C29.9097 46.2886 30.1181 46.0717 30.1181 45.821C30.1176 45.5362 29.9092 45.3096 29.6794 45.3096Z" fill="#55585F"/>
</g>
<defs>
<clipPath id="clip0_1114_2328">
<rect width="107.351" height="52" fill="white" transform="translate(0.824463)"/>
</clipPath>
</defs>
</svg>
